<?xml version="1.0" standalone="no"?>
<!DOCTYPE svg PUBLIC "-//W3C//DTD SVG 20010904//EN"
 "http://www.w3.org/TR/2001/REC-SVG-20010904/DTD/svg10.dtd">
<svg version="1.0" xmlns="http://www.w3.org/2000/svg"
 width="1188.000000pt" height="1188.000000pt" viewBox="0 0 1188.000000 1188.000000"
 preserveAspectRatio="xMidYMid meet">
<metadata>
Created by potrace 1.11, written by Peter Selinger 2001-2013
</metadata>
<g transform="translate(0.000000,1188.000000) scale(0.100000,-0.100000)"
fill="#000000" stroke="none">
<path d="M4218 10155 c-2 -2 -46 -6 -98 -9 -52 -3 -95 -5 -95 -6 0 -1 -20 -3
-45 -5 -41 -4 -79 -9 -165 -21 -16 -2 -41 -6 -55 -9 -14 -3 -45 -8 -70 -11
-47 -7 -69 -10 -110 -19 -14 -3 -36 -8 -50 -11 -36 -7 -67 -13 -92 -18 -13 -2
-43 -10 -68 -16 -25 -7 -52 -14 -60 -16 -8 -1 -53 -14 -100 -28 -47 -15 -93
-29 -103 -31 -41 -9 -223 -71 -287 -98 -14 -5 -30 -11 -36 -12 -6 -2 -27 -10
-45 -18 -19 -8 -83 -37 -144 -63 -116 -51 -335 -161 -397 -201 -21 -12 -42
-23 -48 -23 -5 0 -10 -4 -10 -10 0 -5 -4 -10 -10 -10 -12 0 -167 -97 -196
-122 -11 -10 -23 -18 -27 -18 -11 0 -248 -171 -277 -200 -3 -3 -27 -23 -55
-45 -161 -129 -382 -345 -540 -530 -33 -38 -63 -71 -67 -73 -5 -2 -8 -10 -8
-17 0 -7 -4 -15 -10 -17 -5 -1 -41 -46 -79 -98 -39 -52 -75 -100 -80 -106 -44
-52 -212 -329 -286 -469 -26 -49 -51 -96 -57 -102 -6 -7 -8 -13 -5 -13 3 0 -7
-27 -24 -60 -27 -54 -50 -107 -54 -120 0 -3 -8 -21 -17 -40 -35 -78 -130 -344
-143 -400 -1 -8 -11 -42 -21 -75 -9 -33 -18 -67 -20 -75 -1 -8 -7 -35 -13 -60
-6 -25 -13 -52 -15 -60 -11 -41 -46 -232 -52 -280 -8 -72 -12 -95 -14 -95 -1
0 -3 -18 -5 -40 -1 -22 -6 -71 -9 -110 -6 -57 -18 -302 -18 -340 1 -54 13
-318 16 -345 2 -19 7 -71 11 -115 4 -44 9 -89 11 -100 3 -11 7 -36 9 -55 5
-31 20 -118 30 -175 2 -11 4 -20 5 -20 1 0 3 -11 5 -25 3 -28 43 -197 52 -220
3 -8 8 -24 10 -35 16 -86 142 -435 213 -590 36 -80 117 -240 150 -300 44 -80
125 -210 133 -213 4 -2 7 -8 7 -13 0 -6 19 -37 42 -71 24 -33 48 -68 53 -77
13 -22 87 -123 100 -137 5 -6 21 -26 35 -44 30 -40 75 -95 144 -175 66 -77
313 -324 395 -395 34 -30 76 -66 92 -80 16 -14 49 -41 74 -60 26 -19 59 -45
73 -58 15 -12 45 -35 67 -50 22 -15 42 -29 45 -32 3 -3 39 -28 80 -55 41 -28
77 -53 80 -56 3 -3 12 -9 20 -12 8 -4 47 -28 85 -52 39 -25 81 -50 95 -57 14
-7 27 -15 30 -18 11 -11 363 -190 374 -190 3 0 34 -13 68 -30 34 -16 65 -30
70 -30 4 0 27 -9 51 -19 151 -68 547 -190 707 -217 14 -3 32 -7 40 -10 8 -3
29 -8 45 -10 17 -2 41 -6 55 -9 14 -3 41 -8 60 -11 19 -3 60 -9 90 -14 91 -15
143 -22 190 -26 25 -3 63 -6 85 -8 225 -23 739 -24 875 -2 14 2 52 7 85 10 33
4 71 8 85 10 14 3 57 9 95 15 100 15 188 31 205 36 3 1 28 5 55 10 28 4 54 10
60 13 5 3 16 7 25 8 44 5 249 61 369 101 41 14 82 26 90 28 9 2 38 13 64 24
27 12 52 21 57 21 4 0 25 8 46 17 22 9 44 17 49 19 53 11 496 229 595 293 49
32 65 41 80 48 8 4 20 10 25 15 6 4 69 46 140 94 140 94 275 194 275 205 0 10
-1048 1054 -1057 1054 -6 0 -161 -99 -209 -132 -18 -14 -57 -36 -119 -67 -33
-16 -62 -33 -65 -36 -10 -13 -260 -120 -360 -155 -105 -36 -227 -73 -265 -80
-11 -2 -48 -11 -82 -19 -34 -9 -77 -18 -95 -21 -18 -3 -44 -7 -58 -10 -108
-20 -240 -34 -369 -40 -57 -2 -106 -7 -109 -9 -2 -3 -13 -1 -23 5 -13 7 -19 6
-19 -1 0 -6 -5 -8 -11 -5 -5 4 -59 8 -119 10 -108 4 -192 10 -260 20 -19 3
-51 8 -70 10 -19 2 -46 6 -60 10 -14 3 -38 7 -55 10 -16 2 -45 9 -62 14 -18 5
-33 8 -33 6 0 -3 -10 -1 -23 4 -13 5 -39 12 -58 15 -19 3 -86 22 -149 42 -63
21 -117 38 -120 39 -15 1 -106 39 -115 46 -5 5 -16 9 -24 9 -22 0 -326 152
-399 199 -34 23 -66 41 -71 41 -4 0 -16 9 -26 20 -10 11 -24 20 -31 20 -7 0
-14 3 -16 8 -1 4 -28 24 -58 44 -30 21 -68 49 -85 63 -16 13 -35 28 -40 32
-104 78 -308 281 -435 434 -141 170 -317 469 -404 689 -49 123 -110 311 -120
372 -3 15 -7 32 -10 36 -3 5 -8 29 -11 53 -3 24 -8 52 -11 61 -9 28 -14 61
-19 122 -3 32 -7 62 -10 66 -3 4 -7 69 -10 144 -3 76 -6 140 -6 144 -1 4 -1 9
0 12 1 3 4 57 6 120 3 63 7 131 10 150 2 19 7 60 11 90 3 30 10 73 14 95 5 22
11 54 14 70 6 31 8 40 27 115 6 25 12 52 14 60 2 8 10 34 19 58 8 23 13 42 9
42 -3 0 -1 6 4 13 11 13 27 67 25 80 -1 4 3 7 10 7 6 0 9 3 5 6 -5 6 27 88 83
209 15 33 28 65 29 70 1 6 8 17 15 25 6 8 18 29 26 45 25 50 103 180 112 183
4 2 8 8 8 14 0 8 25 47 72 113 4 5 31 40 60 76 29 36 67 83 83 104 32 41 215
227 280 286 40 36 246 196 276 214 9 6 42 27 73 48 31 20 61 37 66 37 6 0 10
3 10 8 0 4 15 13 33 21 17 8 34 18 37 21 8 12 244 128 328 161 168 68 364 130
487 155 11 2 45 9 75 15 30 7 66 13 80 15 14 1 43 6 65 9 137 22 246 29 455
29 113 0 241 -4 285 -8 44 -5 98 -10 120 -11 22 -2 40 -4 40 -5 0 -1 11 -3 25
-6 14 -2 59 -11 100 -19 41 -8 86 -16 100 -19 48 -9 215 -55 275 -76 33 -11
65 -22 70 -24 130 -40 415 -174 538 -253 37 -23 70 -43 72 -43 2 0 46 -29 96
-65 l92 -65 509 509 c279 280 508 511 508 515 0 3 -5 6 -11 6 -7 0 -17 6 -23
14 -16 19 -214 161 -321 229 -190 121 -215 136 -215 129 0 -4 -4 -2 -8 3 -23
32 -540 277 -632 300 -8 2 -43 15 -78 29 -34 13 -64 25 -65 25 -1 0 -9 2 -17
5 -41 13 -221 67 -237 71 -10 2 -61 15 -113 28 -52 14 -108 27 -125 30 -66 12
-101 20 -119 29 -14 7 -16 7 -11 -2 6 -9 3 -9 -13 -1 -12 6 -25 11 -29 10 -4
-1 -10 0 -13 1 -3 1 -16 3 -30 5 -14 1 -38 5 -55 8 -16 3 -52 8 -80 12 -27 3
-63 8 -80 11 -16 3 -52 7 -80 10 -27 2 -70 6 -95 9 -55 6 -637 15 -642 10z"/>
<path d="M8463 8962 c-13 -2 -24 -6 -24 -10 -8 -41 -15 -109 -24 -217 -3 -38
-7 -90 -10 -115 -7 -64 -20 -209 -30 -340 -3 -41 -8 -86 -10 -100 -2 -14 -7
-61 -10 -105 -4 -44 -8 -97 -10 -119 -3 -21 -7 -70 -10 -110 -9 -100 -14 -150
-21 -231 -4 -38 -7 -83 -8 -100 -1 -35 12 -33 -221 -35 -11 0 -47 0 -80 1 -33
0 -80 0 -105 -1 -51 -2 -51 -2 -140 0 -36 0 -98 1 -137 0 -40 -1 -77 1 -82 4
-5 4 -12 2 -15 -3 -4 -6 -18 -6 -35 -1 -15 4 -33 5 -38 1 -12 -8 -25 -41 -15
-41 8 0 8 -68 -1 -76 -4 -4 -2 -15 3 -25 7 -12 7 -20 0 -24 -8 -5 -8 -11 -1
-19 6 -7 8 -16 5 -19 -9 -8 -9 -85 -1 -93 3 -4 2 -15 -3 -25 -6 -10 -6 -20 -2
-23 5 -3 5 -30 2 -60 -3 -31 -3 -56 2 -56 4 0 3 -11 -2 -24 -5 -13 -6 -27 -2
-30 3 -4 5 -25 3 -46 l-3 -40 405 0 405 0 -4 -41 c-2 -23 -7 -45 -10 -50 -3
-5 0 -9 6 -9 6 0 8 -5 3 -12 -4 -7 -8 -22 -9 -33 -4 -52 -15 -175 -20 -217 -3
-25 -7 -73 -9 -105 -2 -32 -6 -78 -9 -103 -3 -25 -8 -79 -11 -120 -3 -41 -8
-91 -10 -110 -5 -35 -13 -134 -20 -225 -2 -27 -6 -72 -9 -100 -3 -27 -8 -84
-11 -125 -8 -94 -12 -131 -20 -200 -3 -30 -8 -84 -11 -120 -8 -113 -3 -105
-59 -108 -27 -1 -57 -3 -65 -4 -9 -1 -28 2 -43 6 -15 3 -27 3 -27 -2 0 -5 -19
-6 -42 -2 -24 3 -54 3 -68 0 -13 -3 -46 -3 -72 0 -27 4 -48 3 -48 -1 0 -4 -13
-4 -29 1 -15 4 -34 4 -41 0 -7 -4 -25 -4 -40 0 -15 4 -33 4 -40 0 -7 -5 -23
-5 -34 0 -12 4 -30 4 -41 0 -11 -4 -23 -6 -27 -4 -3 2 -30 4 -60 4 -53 0 -74
0 -103 0 -95 2 -119 -8 -104 -46 5 -14 6 -23 1 -21 -4 3 -6 -34 -5 -81 2 -82
2 -103 3 -212 0 -25 1 -58 3 -75 1 -16 -1 -42 -4 -56 -4 -14 -3 -33 2 -42 6
-10 5 -18 -1 -22 -7 -4 -7 -12 0 -24 5 -10 8 -20 5 -22 -3 -4 50 -3 125 1 19
1 37 1 40 0 21 -7 40 -7 40 1 0 6 5 7 11 3 14 -8 165 -7 179 1 5 3 11 1 15 -5
4 -6 12 -7 24 -1 9 5 23 6 30 2 7 -5 30 -5 52 -1 22 4 42 4 45 -1 2 -4 16 -4
29 1 14 5 25 6 25 2 0 -5 23 -6 50 -2 28 4 53 3 56 -1 3 -5 16 -4 29 1 14 5
25 6 25 2 0 -4 21 -7 47 -7 l48 0 -1 -40 c0 -22 -4 -74 -8 -115 -4 -41 -9
-100 -12 -130 -2 -30 -7 -75 -9 -100 -3 -25 -7 -79 -10 -120 -3 -41 -7 -90
-10 -110 -2 -19 -7 -66 -10 -105 -3 -38 -8 -90 -10 -115 -3 -25 -7 -76 -10
-115 -8 -85 -12 -131 -20 -210 -3 -33 -7 -82 -10 -110 -2 -27 -7 -86 -11 -130
-4 -44 -8 -97 -8 -117 -1 -21 -4 -38 -8 -38 -3 0 -4 -9 -1 -21 4 -14 12 -19
24 -16 11 3 19 2 19 -2 0 -4 22 -5 50 -1 27 3 55 3 62 -1 6 -4 19 -4 28 1 9 5
22 5 29 1 7 -5 30 -5 51 -1 21 4 44 4 51 -1 7 -4 20 -4 29 1 9 5 22 5 29 1 7
-5 30 -5 51 -1 21 4 44 4 51 -1 7 -4 20 -4 29 1 9 5 22 5 28 1 7 -4 26 -6 42
-3 24 3 30 9 31 31 1 14 3 35 4 46 2 11 6 54 9 95 3 41 8 93 10 115 3 22 7 74
11 115 3 41 8 91 10 110 2 19 7 69 11 110 3 41 8 78 11 82 2 5 -2 8 -9 8 -8 0
-9 3 -3 8 6 4 11 16 11 27 1 11 4 50 8 88 3 37 9 97 12 135 3 37 7 83 9 102 2
19 7 69 10 110 3 41 8 91 10 110 2 19 7 71 11 115 3 44 8 91 9 105 2 14 3 39
4 56 1 23 7 33 21 37 11 3 22 1 25 -4 3 -4 16 -4 30 1 13 5 27 6 29 1 3 -4 26
-5 51 -1 25 4 48 3 51 -1 2 -5 16 -4 29 1 14 5 25 6 25 2 0 -6 58 -7 151 -2
19 1 36 1 39 0 17 -6 62 -4 66 2 3 5 13 4 23 -1 10 -6 23 -6 31 -1 8 5 18 6
23 3 9 -5 138 -7 163 -2 5 1 11 0 14 -1 16 -6 52 -6 56 1 2 5 15 4 27 0 14 -5
30 -5 40 0 10 6 17 6 17 1 0 -5 20 -6 45 -2 25 4 48 3 51 -1 2 -5 16 -4 29 1
14 5 25 6 25 2 0 -5 23 -6 50 -2 28 4 53 3 56 -1 3 -5 16 -4 29 1 14 5 25 6
25 2 0 -5 25 -5 56 -2 30 3 57 3 60 -2 3 -4 13 -4 23 2 10 5 21 6 25 3 4 -4
24 -6 46 -5 33 2 38 0 36 -15 -2 -10 -7 -58 -11 -108 -4 -49 -9 -108 -11 -130
-2 -22 -6 -69 -9 -105 -3 -36 -7 -83 -10 -105 -2 -22 -7 -71 -10 -110 -3 -38
-8 -86 -10 -105 -3 -19 -7 -66 -10 -105 -3 -38 -7 -92 -10 -120 -2 -27 -7 -77
-10 -110 -2 -33 -7 -82 -10 -110 -9 -91 -15 -159 -19 -215 -10 -128 -18 -206
-21 -227 -2 -12 3 -27 11 -34 11 -9 14 -9 14 2 0 10 3 10 12 1 7 -7 17 -8 28
-2 9 5 22 5 29 0 8 -4 27 -4 42 0 18 5 29 5 29 -1 0 -6 6 -7 17 0 10 5 26 5
40 0 13 -5 23 -5 23 -1 0 6 48 8 58 2 3 -2 80 -2 90 0 21 4 102 1 110 -4 6 -3
13 -2 17 3 3 6 15 7 28 2 25 -9 51 -2 54 15 1 6 5 49 8 95 4 46 8 102 11 124
2 22 6 69 9 105 3 36 7 83 10 105 8 71 16 168 20 225 2 30 6 77 9 104 6 53 17
170 21 226 1 19 5 64 9 100 7 63 13 131 20 215 2 22 7 78 11 125 4 47 8 96 10
110 2 14 4 30 4 36 1 14 49 25 57 13 2 -5 16 -4 29 1 14 5 25 6 25 2 0 -6 58
-7 151 -2 19 1 36 1 39 0 17 -6 62 -4 66 2 3 5 13 4 23 -1 10 -6 23 -6 31 -1
8 5 18 6 23 3 9 -5 138 -7 163 -2 5 1 11 0 14 -1 16 -6 52 -6 56 1 2 5 15 4
27 0 14 -5 30 -5 40 0 10 6 17 6 17 1 0 -5 20 -6 45 -2 25 4 48 3 51 -1 8 -13
31 0 32 19 1 9 1 62 1 117 0 55 0 107 0 115 2 163 0 263 -4 271 -4 5 -2 9 2 9
5 0 7 16 5 35 -4 32 -7 35 -38 36 -19 1 -40 2 -46 3 -7 1 -25 -1 -39 -5 -15
-4 -32 -3 -39 1 -7 4 -24 5 -38 1 -14 -4 -47 -4 -74 -1 -27 4 -51 3 -54 -2 -3
-5 -12 -4 -20 3 -9 7 -14 8 -14 1 0 -7 -10 -8 -27 -3 -16 4 -39 5 -53 1 -13
-3 -46 -3 -73 0 -26 4 -50 3 -53 -2 -3 -5 -12 -4 -20 3 -10 8 -14 8 -14 1 0
-7 -8 -8 -22 -3 -12 4 -38 5 -57 1 -20 -3 -63 -4 -96 -1 l-59 6 2 35 c1 19 4
51 6 70 3 19 7 73 11 120 4 47 8 99 10 115 1 17 6 64 10 105 4 41 8 93 11 115
2 22 6 72 9 110 3 39 8 88 10 110 2 22 7 74 10 115 3 41 8 86 10 100 2 14 7
63 10 110 4 47 9 103 11 125 3 22 7 67 9 100 3 33 7 78 9 100 5 42 17 186 20
220 1 20 9 20 484 23 l482 2 0 299 0 299 -47 2 c-27 1 -68 1 -93 0 -25 -1 -54
-2 -65 -1 -11 0 -60 0 -110 0 -49 0 -99 0 -110 1 -27 2 -29 2 -125 1 -47 0
-92 0 -100 0 -8 0 -49 0 -90 0 -41 0 -95 0 -120 2 -45 2 -45 2 -44 37 2 33 13
169 19 235 6 55 17 179 20 225 7 98 21 225 25 225 0 0 3 38 5 85 2 47 6 101 9
120 3 19 8 69 11 110 9 114 14 159 21 225 3 33 8 83 9 110 2 28 6 59 8 70 6
28 -11 47 -32 35 -9 -5 -23 -5 -30 0 -8 4 -27 4 -42 0 -17 -5 -29 -5 -29 0 0
6 -10 6 -24 0 -13 -5 -26 -6 -30 -3 -3 3 -30 5 -61 4 -30 -1 -63 -1 -72 -1
-10 0 -47 0 -83 -1 -36 0 -69 0 -75 0 -5 0 -27 2 -47 3 -21 2 -38 0 -38 -3 0
-4 -9 -5 -20 -2 -15 4 -20 0 -21 -13 0 -11 -2 -35 -4 -54 -3 -33 -12 -131 -20
-229 -2 -25 -7 -74 -10 -109 -3 -35 -8 -90 -11 -121 -2 -31 -6 -76 -9 -101 -3
-25 -8 -79 -10 -120 -3 -41 -8 -86 -10 -100 -2 -14 -7 -59 -10 -100 -3 -41 -8
-97 -11 -125 -3 -27 -7 -75 -9 -105 -2 -30 -4 -55 -4 -55 -1 0 -4 -29 -7 -65
-3 -36 -7 -78 -9 -95 -1 -16 -3 -42 -4 -57 -1 -29 6 -28 -108 -28 -71 0 -162
-1 -180 -1 -10 0 -52 0 -93 0 -41 0 -82 0 -90 0 -8 0 -28 0 -45 0 -16 1 -39 1
-50 0 -58 0 -253 0 -270 1 -27 2 -29 2 -125 1 -47 0 -92 0 -100 0 -8 1 -35 0
-60 0 -25 0 -52 -1 -60 0 -8 0 -55 0 -105 0 -49 0 -110 1 -135 2 l-44 2 3 54
c1 29 4 63 7 75 4 20 11 100 19 216 2 30 5 55 5 55 2 0 5 34 14 150 3 39 7 90
10 115 13 115 34 346 41 450 2 30 6 73 9 95 3 22 8 74 11 115 3 41 8 89 10
107 2 18 -1 36 -7 39 -7 4 -43 7 -82 5 -39 -1 -78 -2 -86 -2 -8 1 -44 1 -80 0
-76 0 -76 0 -139 2 -27 1 -53 -1 -58 -4 -5 -3 -15 -2 -22 3 -8 4 -26 4 -42 0
-15 -5 -29 -5 -31 -2 -2 4 -13 6 -25 4z m1853 -2090 c-2 -4 -7 -39 -10 -77
-12 -136 -25 -279 -31 -335 -3 -25 -7 -70 -10 -100 -11 -144 -20 -246 -29
-330 -4 -30 -8 -86 -11 -125 -2 -38 -5 -70 -5 -70 -1 0 -5 -45 -14 -149 -3
-32 -8 -87 -11 -121 -4 -35 -9 -85 -11 -111 -2 -27 -7 -80 -10 -119 -3 -38 -7
-81 -9 -95 -2 -14 -3 -29 -4 -33 -1 -5 -19 -7 -41 -6 -21 2 -42 0 -46 -4 -4
-4 -13 -2 -21 4 -9 8 -13 8 -13 1 0 -7 -8 -8 -22 -3 -12 4 -39 4 -61 0 -22 -4
-52 -3 -67 1 -15 4 -33 4 -40 0 -7 -4 -25 -4 -40 0 -15 4 -33 4 -40 0 -7 -5
-23 -5 -34 0 -12 4 -29 4 -40 1 -10 -4 -40 -4 -66 -1 -25 3 -58 3 -72 -1 -14
-4 -31 -3 -38 1 -7 4 -24 5 -38 1 -14 -4 -47 -4 -74 -1 -27 4 -51 3 -54 -2 -3
-5 -12 -4 -20 3 -9 7 -14 8 -14 1 0 -7 -10 -8 -27 -3 -16 4 -39 5 -53 1 -13
-3 -46 -3 -73 0 -26 4 -50 3 -53 -2 -3 -5 -12 -4 -20 3 -10 8 -14 8 -14 0 0
-7 -8 -8 -22 -3 -13 5 -39 5 -58 2 -19 -3 -54 -3 -78 1 -23 3 -45 2 -48 -3 -3
-5 -12 -4 -20 3 -9 7 -14 8 -14 1 0 -7 -10 -8 -27 -3 -16 4 -39 5 -53 1 -56
-14 -61 -6 -54 89 8 103 12 146 14 146 0 0 3 28 5 63 2 35 6 84 9 110 7 63 17
167 21 222 6 75 15 183 20 225 3 22 7 67 10 100 8 102 15 178 20 230 6 62 14
151 21 230 3 33 7 80 10 105 3 25 6 65 7 90 1 25 6 51 10 58 6 9 165 12 738
12 402 0 728 -3 725 -8z"/>
</g>
</svg>
